<svg width="1200" height="900" viewBox="0 0 1200 900" fill="none" xmlns="http://www.w3.org/2000/svg">
  <rect width="1200" height="900" fill="#FFFDF7"/>
  <rect x="80" y="70" width="1040" height="760" rx="34" fill="#FFFBEB" stroke="#E5E7EB"/>
  <path d="M188 662C270 528 376 430 500 372C604 324 694 320 790 354C866 382 938 438 1012 528" stroke="#111827" stroke-width="8" stroke-linecap="round"/>
  <path d="M228 566C308 532 388 520 468 534C544 548 614 584 684 648" stroke="#7351F3" stroke-width="5" stroke-linecap="round" stroke-dasharray="2 18"/>
  <path d="M276 252C344 210 420 188 498 190C588 192 666 224 742 292" stroke="#0F172A" stroke-width="10" stroke-linecap="round"/>
  <path d="M782 228L972 414" stroke="#F59E0B" stroke-width="14" stroke-linecap="round"/>
  <circle cx="930" cy="260" r="32" fill="#DBEAFE"/>
  <circle cx="338" cy="682" r="18" fill="#FCD34D"/>
</svg>
